<mxfile host="app.diagrams.net" modified="2023-08-06T20:08:17.007Z" agent="Mozilla/5.0 (X11; Linux x86_64) AppleWebKit/537.36 (KHTML, like Gecko) Chrome/114.0.0.0 Safari/537.36" etag="fB1siE2eV8e1RlNgxvvl" version="21.6.6" type="device">
  <diagram name="Page-1" id="305SGDI7W9s_KfbfRGtT">
    <mxGraphModel dx="1483" dy="859" grid="1" gridSize="10" guides="1" tooltips="1" connect="1" arrows="1" fold="1" page="1" pageScale="1" pageWidth="850" pageHeight="1100" math="0" shadow="0">
      <root>
        <mxCell id="0" />
        <mxCell id="1" parent="0" />
        <mxCell id="pLAp17gwkIlJmsqobUR1-7" style="edgeStyle=orthogonalEdgeStyle;rounded=0;orthogonalLoop=1;jettySize=auto;html=1;" parent="1" source="pLAp17gwkIlJmsqobUR1-2" target="pLAp17gwkIlJmsqobUR1-3" edge="1">
          <mxGeometry relative="1" as="geometry" />
        </mxCell>
        <mxCell id="pLAp17gwkIlJmsqobUR1-8" style="edgeStyle=orthogonalEdgeStyle;rounded=0;orthogonalLoop=1;jettySize=auto;html=1;entryX=0.5;entryY=0;entryDx=0;entryDy=0;" parent="1" source="pLAp17gwkIlJmsqobUR1-2" target="pLAp17gwkIlJmsqobUR1-4" edge="1">
          <mxGeometry relative="1" as="geometry" />
        </mxCell>
        <mxCell id="pLAp17gwkIlJmsqobUR1-28" style="edgeStyle=orthogonalEdgeStyle;rounded=0;orthogonalLoop=1;jettySize=auto;html=1;entryX=0.525;entryY=0.075;entryDx=0;entryDy=0;entryPerimeter=0;" parent="1" source="pLAp17gwkIlJmsqobUR1-2" target="pLAp17gwkIlJmsqobUR1-26" edge="1">
          <mxGeometry relative="1" as="geometry">
            <mxPoint x="80" y="400" as="targetPoint" />
          </mxGeometry>
        </mxCell>
        <mxCell id="pLAp17gwkIlJmsqobUR1-2" value="User" style="shape=umlActor;verticalLabelPosition=bottom;verticalAlign=top;html=1;outlineConnect=0;" parent="1" vertex="1">
          <mxGeometry x="410" y="90" width="30" height="60" as="geometry" />
        </mxCell>
        <mxCell id="pLAp17gwkIlJmsqobUR1-5" style="edgeStyle=orthogonalEdgeStyle;rounded=0;orthogonalLoop=1;jettySize=auto;html=1;exitX=0;exitY=0.5;exitDx=0;exitDy=0;entryX=1;entryY=0.5;entryDx=0;entryDy=0;endArrow=none;endFill=0;startArrow=classic;startFill=1;" parent="1" source="pLAp17gwkIlJmsqobUR1-3" target="pLAp17gwkIlJmsqobUR1-4" edge="1">
          <mxGeometry relative="1" as="geometry" />
        </mxCell>
        <mxCell id="pLAp17gwkIlJmsqobUR1-6" value="Embedded&amp;nbsp;" style="edgeLabel;html=1;align=center;verticalAlign=middle;resizable=0;points=[];" parent="pLAp17gwkIlJmsqobUR1-5" vertex="1" connectable="0">
          <mxGeometry x="-0.18" y="4" relative="1" as="geometry">
            <mxPoint x="-8" y="-4" as="offset" />
          </mxGeometry>
        </mxCell>
        <mxCell id="pLAp17gwkIlJmsqobUR1-20" style="edgeStyle=orthogonalEdgeStyle;rounded=0;orthogonalLoop=1;jettySize=auto;html=1;exitX=0.5;exitY=1;exitDx=0;exitDy=0;entryX=1;entryY=0.5;entryDx=0;entryDy=0;" parent="1" source="pLAp17gwkIlJmsqobUR1-3" target="pLAp17gwkIlJmsqobUR1-19" edge="1">
          <mxGeometry relative="1" as="geometry" />
        </mxCell>
        <mxCell id="pLAp17gwkIlJmsqobUR1-3" value="Site&amp;nbsp;&lt;br&gt;htmx" style="rounded=1;whiteSpace=wrap;html=1;" parent="1" vertex="1">
          <mxGeometry x="480" y="320" width="120" height="60" as="geometry" />
        </mxCell>
        <mxCell id="887G2Gbms3AWsfri2u74-2" style="edgeStyle=orthogonalEdgeStyle;rounded=0;orthogonalLoop=1;jettySize=auto;html=1;exitX=0.5;exitY=1;exitDx=0;exitDy=0;entryX=1;entryY=0.5;entryDx=0;entryDy=0;" parent="1" source="pLAp17gwkIlJmsqobUR1-4" target="pLAp17gwkIlJmsqobUR1-19" edge="1">
          <mxGeometry relative="1" as="geometry">
            <mxPoint x="305" y="400" as="sourcePoint" />
            <mxPoint x="545" y="510" as="targetPoint" />
            <Array as="points">
              <mxPoint x="300" y="420" />
              <mxPoint x="540" y="420" />
            </Array>
          </mxGeometry>
        </mxCell>
        <mxCell id="pLAp17gwkIlJmsqobUR1-4" value="Editor App&lt;br&gt;(Angular Element)" style="rounded=1;whiteSpace=wrap;html=1;" parent="1" vertex="1">
          <mxGeometry x="240" y="320" width="120" height="60" as="geometry" />
        </mxCell>
        <mxCell id="pLAp17gwkIlJmsqobUR1-10" value="" style="rounded=0;whiteSpace=wrap;html=1;fillColor=#f5f5f5;fontColor=#333333;strokeColor=#666666;" parent="1" vertex="1">
          <mxGeometry x="806.25" y="110" width="350" height="300" as="geometry" />
        </mxCell>
        <mxCell id="pLAp17gwkIlJmsqobUR1-11" value="Editor (Angular Element)" style="rounded=0;whiteSpace=wrap;html=1;" parent="1" vertex="1">
          <mxGeometry x="886.25" y="170" width="270" height="220" as="geometry" />
        </mxCell>
        <mxCell id="pLAp17gwkIlJmsqobUR1-12" value="Main Nav (htmx)" style="rounded=0;whiteSpace=wrap;html=1;fillColor=#f5f5f5;fontColor=#333333;strokeColor=#666666;" parent="1" vertex="1">
          <mxGeometry x="806.25" y="110" width="350" height="60" as="geometry" />
        </mxCell>
        <mxCell id="pLAp17gwkIlJmsqobUR1-13" value="Files (htmx)" style="rounded=0;whiteSpace=wrap;html=1;fillColor=#f5f5f5;fontColor=#333333;strokeColor=#666666;" parent="1" vertex="1">
          <mxGeometry x="806.25" y="170" width="80" height="240" as="geometry" />
        </mxCell>
        <mxCell id="pLAp17gwkIlJmsqobUR1-14" value="Controls (htmx)" style="rounded=0;whiteSpace=wrap;html=1;fillColor=#f5f5f5;fontColor=#333333;strokeColor=#666666;" parent="1" vertex="1">
          <mxGeometry x="886.25" y="390" width="270" height="20" as="geometry" />
        </mxCell>
        <mxCell id="pLAp17gwkIlJmsqobUR1-15" value="Crappy UI Mockup" style="text;html=1;strokeColor=none;fillColor=none;align=center;verticalAlign=middle;whiteSpace=wrap;rounded=0;" parent="1" vertex="1">
          <mxGeometry x="883.75" y="70" width="195" height="40" as="geometry" />
        </mxCell>
        <mxCell id="pLAp17gwkIlJmsqobUR1-16" value="" style="endArrow=none;dashed=1;html=1;rounded=0;fillColor=#f8cecc;strokeColor=#b85450;" parent="1" edge="1">
          <mxGeometry width="50" height="50" relative="1" as="geometry">
            <mxPoint x="630" y="440" as="sourcePoint" />
            <mxPoint x="1130" y="440" as="targetPoint" />
          </mxGeometry>
        </mxCell>
        <mxCell id="pLAp17gwkIlJmsqobUR1-29" style="edgeStyle=orthogonalEdgeStyle;rounded=0;orthogonalLoop=1;jettySize=auto;html=1;exitX=0;exitY=0.5;exitDx=0;exitDy=0;entryX=0.55;entryY=0.95;entryDx=0;entryDy=0;entryPerimeter=0;" parent="1" source="pLAp17gwkIlJmsqobUR1-18" target="pLAp17gwkIlJmsqobUR1-26" edge="1">
          <mxGeometry relative="1" as="geometry">
            <mxPoint x="70" y="490" as="targetPoint" />
          </mxGeometry>
        </mxCell>
        <mxCell id="pLAp17gwkIlJmsqobUR1-18" value="User / IDP integration" style="rounded=1;whiteSpace=wrap;html=1;" parent="1" vertex="1">
          <mxGeometry x="350" y="610" width="90" height="60" as="geometry" />
        </mxCell>
        <mxCell id="pLAp17gwkIlJmsqobUR1-23" style="edgeStyle=orthogonalEdgeStyle;rounded=0;orthogonalLoop=1;jettySize=auto;html=1;exitX=0;exitY=0.5;exitDx=0;exitDy=0;entryX=0.5;entryY=0;entryDx=0;entryDy=0;" parent="1" source="pLAp17gwkIlJmsqobUR1-19" target="pLAp17gwkIlJmsqobUR1-22" edge="1">
          <mxGeometry relative="1" as="geometry">
            <Array as="points">
              <mxPoint x="540" y="580" />
              <mxPoint x="758" y="580" />
            </Array>
          </mxGeometry>
        </mxCell>
        <mxCell id="7CrDT5_cEv3WjHguBi0t-5" value="Search" style="edgeLabel;html=1;align=center;verticalAlign=middle;resizable=0;points=[];" parent="pLAp17gwkIlJmsqobUR1-23" vertex="1" connectable="0">
          <mxGeometry x="0.1209" y="4" relative="1" as="geometry">
            <mxPoint as="offset" />
          </mxGeometry>
        </mxCell>
        <mxCell id="pLAp17gwkIlJmsqobUR1-24" style="edgeStyle=orthogonalEdgeStyle;rounded=0;orthogonalLoop=1;jettySize=auto;html=1;exitX=0;exitY=0.5;exitDx=0;exitDy=0;" parent="1" source="pLAp17gwkIlJmsqobUR1-19" target="pLAp17gwkIlJmsqobUR1-21" edge="1">
          <mxGeometry relative="1" as="geometry" />
        </mxCell>
        <mxCell id="7CrDT5_cEv3WjHguBi0t-4" value="CRUD" style="edgeLabel;html=1;align=center;verticalAlign=middle;resizable=0;points=[];" parent="pLAp17gwkIlJmsqobUR1-24" vertex="1" connectable="0">
          <mxGeometry x="0.5259" y="1" relative="1" as="geometry">
            <mxPoint as="offset" />
          </mxGeometry>
        </mxCell>
        <mxCell id="pLAp17gwkIlJmsqobUR1-25" style="edgeStyle=orthogonalEdgeStyle;rounded=0;orthogonalLoop=1;jettySize=auto;html=1;exitX=0;exitY=0.5;exitDx=0;exitDy=0;entryX=0.5;entryY=0;entryDx=0;entryDy=0;" parent="1" source="pLAp17gwkIlJmsqobUR1-19" target="pLAp17gwkIlJmsqobUR1-18" edge="1">
          <mxGeometry relative="1" as="geometry">
            <Array as="points">
              <mxPoint x="540" y="580" />
              <mxPoint x="395" y="580" />
            </Array>
          </mxGeometry>
        </mxCell>
        <mxCell id="7CrDT5_cEv3WjHguBi0t-6" value="User Management" style="edgeLabel;html=1;align=center;verticalAlign=middle;resizable=0;points=[];" parent="pLAp17gwkIlJmsqobUR1-25" vertex="1" connectable="0">
          <mxGeometry x="0.078" relative="1" as="geometry">
            <mxPoint x="2" as="offset" />
          </mxGeometry>
        </mxCell>
        <mxCell id="pLAp17gwkIlJmsqobUR1-19" value="Gateway" style="triangle;whiteSpace=wrap;html=1;rotation=-90;" parent="1" vertex="1">
          <mxGeometry x="510" y="430" width="60" height="80" as="geometry" />
        </mxCell>
        <mxCell id="pLAp17gwkIlJmsqobUR1-31" style="edgeStyle=orthogonalEdgeStyle;rounded=0;orthogonalLoop=1;jettySize=auto;html=1;exitX=0.5;exitY=1;exitDx=0;exitDy=0;" parent="1" source="pLAp17gwkIlJmsqobUR1-21" target="pLAp17gwkIlJmsqobUR1-30" edge="1">
          <mxGeometry relative="1" as="geometry" />
        </mxCell>
        <mxCell id="pLAp17gwkIlJmsqobUR1-34" style="edgeStyle=orthogonalEdgeStyle;rounded=0;orthogonalLoop=1;jettySize=auto;html=1;exitX=1;exitY=0.5;exitDx=0;exitDy=0;entryX=0;entryY=0.5;entryDx=0;entryDy=0;" parent="1" source="pLAp17gwkIlJmsqobUR1-21" target="pLAp17gwkIlJmsqobUR1-22" edge="1">
          <mxGeometry relative="1" as="geometry" />
        </mxCell>
        <mxCell id="pLAp17gwkIlJmsqobUR1-35" value="Update Index" style="edgeLabel;html=1;align=center;verticalAlign=middle;resizable=0;points=[];" parent="pLAp17gwkIlJmsqobUR1-34" vertex="1" connectable="0">
          <mxGeometry x="0.1537" y="-2" relative="1" as="geometry">
            <mxPoint x="-16" y="-2" as="offset" />
          </mxGeometry>
        </mxCell>
        <mxCell id="pLAp17gwkIlJmsqobUR1-21" value="Wiki" style="rounded=1;whiteSpace=wrap;html=1;" parent="1" vertex="1">
          <mxGeometry x="495" y="610" width="90" height="60" as="geometry" />
        </mxCell>
        <mxCell id="7CrDT5_cEv3WjHguBi0t-2" style="edgeStyle=orthogonalEdgeStyle;rounded=0;orthogonalLoop=1;jettySize=auto;html=1;exitX=0.5;exitY=1;exitDx=0;exitDy=0;entryX=0.5;entryY=0;entryDx=0;entryDy=0;" parent="1" source="pLAp17gwkIlJmsqobUR1-22" target="7CrDT5_cEv3WjHguBi0t-1" edge="1">
          <mxGeometry relative="1" as="geometry" />
        </mxCell>
        <mxCell id="pLAp17gwkIlJmsqobUR1-22" value="Wiki Search" style="rounded=1;whiteSpace=wrap;html=1;" parent="1" vertex="1">
          <mxGeometry x="707.5" y="610" width="100" height="60" as="geometry" />
        </mxCell>
        <mxCell id="pLAp17gwkIlJmsqobUR1-26" value="IDP&lt;br&gt;(TBD)" style="ellipse;shape=cloud;whiteSpace=wrap;html=1;" parent="1" vertex="1">
          <mxGeometry x="10" y="400" width="120" height="80" as="geometry" />
        </mxCell>
        <mxCell id="pLAp17gwkIlJmsqobUR1-30" value="Wiki DB" style="shape=cylinder3;whiteSpace=wrap;html=1;boundedLbl=1;backgroundOutline=1;size=15;" parent="1" vertex="1">
          <mxGeometry x="510" y="760" width="60" height="80" as="geometry" />
        </mxCell>
        <mxCell id="pLAp17gwkIlJmsqobUR1-32" value="PVC" style="shape=cylinder3;whiteSpace=wrap;html=1;boundedLbl=1;backgroundOutline=1;size=15;" parent="1" vertex="1">
          <mxGeometry x="727.5" y="810" width="60" height="50" as="geometry" />
        </mxCell>
        <mxCell id="7CrDT5_cEv3WjHguBi0t-3" style="edgeStyle=orthogonalEdgeStyle;rounded=0;orthogonalLoop=1;jettySize=auto;html=1;exitX=0.5;exitY=1;exitDx=0;exitDy=0;entryX=0.5;entryY=0;entryDx=0;entryDy=0;entryPerimeter=0;" parent="1" source="7CrDT5_cEv3WjHguBi0t-1" target="pLAp17gwkIlJmsqobUR1-32" edge="1">
          <mxGeometry relative="1" as="geometry" />
        </mxCell>
        <mxCell id="7CrDT5_cEv3WjHguBi0t-1" value="Search Provider (probably OpenSearch)" style="rounded=1;whiteSpace=wrap;html=1;" parent="1" vertex="1">
          <mxGeometry x="708.75" y="720" width="97.5" height="60" as="geometry" />
        </mxCell>
        <mxCell id="7CrDT5_cEv3WjHguBi0t-10" value="" style="endArrow=none;dashed=1;html=1;rounded=0;fillColor=#f8cecc;strokeColor=#b85450;" parent="1" edge="1">
          <mxGeometry width="50" height="50" relative="1" as="geometry">
            <mxPoint y="440" as="sourcePoint" />
            <mxPoint x="630" y="440" as="targetPoint" />
          </mxGeometry>
        </mxCell>
        <mxCell id="887G2Gbms3AWsfri2u74-4" style="edgeStyle=orthogonalEdgeStyle;rounded=0;orthogonalLoop=1;jettySize=auto;html=1;exitX=0;exitY=0.5;exitDx=0;exitDy=0;entryX=0;entryY=0.5;entryDx=0;entryDy=0;" parent="1" source="887G2Gbms3AWsfri2u74-3" target="pLAp17gwkIlJmsqobUR1-19" edge="1">
          <mxGeometry relative="1" as="geometry" />
        </mxCell>
        <mxCell id="887G2Gbms3AWsfri2u74-3" value="ui&lt;br&gt;(htmx)" style="rounded=1;whiteSpace=wrap;html=1;" parent="1" vertex="1">
          <mxGeometry x="585" y="500" width="90" height="60" as="geometry" />
        </mxCell>
      </root>
    </mxGraphModel>
  </diagram>
</mxfile>
